<svg xmlns="http://www.w3.org/2000/svg" version="1.1" xmlns:xlink="http://www.w3.org/1999/xlink" xmlns:svgjs="http://svgjs.dev/svgjs" width="960" height="540" preserveAspectRatio="none" viewBox="0 0 960 540"><g mask="url(&quot;#SvgjsMask1315&quot;)" fill="none"><rect width="960" height="540" x="0" y="0" fill="#0e2a47"></rect><path d="M-88.5 321.41L-88.5 321.41" stroke="#132e65" stroke-width="1.5"></path><path d="M-88.5 321.41L-89.48 429.5" stroke="#132e65" stroke-width="1.5"></path><path d="M-88.5 321.41L45.7 425.43" stroke="#132e65" stroke-width="1.5"></path><path d="M-88.5 321.41L-33.53 545.92" stroke="#132e65" stroke-width="1.5"></path><path d="M-88.5 321.41L151.25 422.72" stroke="#132e65" stroke-width="1.5"></path><path d="M-88.5 321.41L70.25 553.83" stroke="#132e65" stroke-width="1.5"></path><path d="M-89.48 429.5L-89.48 429.5" stroke="#132e65" stroke-width="1.5"></path><path d="M-89.48 429.5L-33.53 545.92" stroke="#132e65" stroke-width="1.5"></path><path d="M-89.48 429.5L45.7 425.43" stroke="#132e65" stroke-width="1.5"></path><path d="M-89.48 429.5L70.25 553.83" stroke="#132e65" stroke-width="1.5"></path><path d="M-33.53 545.92L-33.53 545.92" stroke="#132e65" stroke-width="1.5"></path><path d="M-33.53 545.92L70.25 553.83" stroke="#132e65" stroke-width="1.5"></path><path d="M-33.53 545.92L35.03 646.62" stroke="#132e65" stroke-width="1.5"></path><path d="M-33.53 545.92L-73.12 682.51" stroke="#132e65" stroke-width="1.5"></path><path d="M-33.53 545.92L45.7 425.43" stroke="#132e65" stroke-width="1.5"></path><path d="M-73.12 682.51L-73.12 682.51" stroke="#132e65" stroke-width="1.5"></path><path d="M-73.12 682.51L35.03 646.62" stroke="#132e65" stroke-width="1.5"></path><path d="M-73.12 682.51L70.25 553.83" stroke="#132e65" stroke-width="1.5"></path><path d="M-73.12 682.51L-89.48 429.5" stroke="#132e65" stroke-width="1.5"></path><path d="M45.7 425.43L45.7 425.43" stroke="#132e65" stroke-width="1.5"></path><path d="M45.7 425.43L151.25 422.72" stroke="#132e65" stroke-width="1.5"></path><path d="M45.7 425.43L70.25 553.83" stroke="#132e65" stroke-width="1.5"></path><path d="M70.25 553.83L70.25 553.83" stroke="#132e65" stroke-width="1.5"></path><path d="M70.25 553.83L35.03 646.62" stroke="#132e65" stroke-width="1.5"></path><path d="M70.25 553.83L175.85 562.57" stroke="#132e65" stroke-width="1.5"></path><path d="M70.25 553.83L151.25 422.72" stroke="#132e65" stroke-width="1.5"></path><path d="M70.25 553.83L187.85 689.81" stroke="#132e65" stroke-width="1.5"></path><path d="M35.03 646.62L35.03 646.62" stroke="#132e65" stroke-width="1.5"></path><path d="M151.25 422.72L151.25 422.72" stroke="#132e65" stroke-width="1.5"></path><path d="M151.25 422.72L289.91 416.98" stroke="#132e65" stroke-width="1.5"></path><path d="M151.25 422.72L175.85 562.57" stroke="#132e65" stroke-width="1.5"></path><path d="M175.85 562.57L175.85 562.57" stroke="#132e65" stroke-width="1.5"></path><path d="M175.85 562.57L273.94 528.76" stroke="#132e65" stroke-width="1.5"></path><path d="M175.85 562.57L187.85 689.81" stroke="#132e65" stroke-width="1.5"></path><path d="M175.85 562.57L316.89 643.07" stroke="#132e65" stroke-width="1.5"></path><path d="M175.85 562.57L35.03 646.62" stroke="#132e65" stroke-width="1.5"></path><path d="M187.85 689.81L187.85 689.81" stroke="#132e65" stroke-width="1.5"></path><path d="M187.85 689.81L316.89 643.07" stroke="#132e65" stroke-width="1.5"></path><path d="M187.85 689.81L35.03 646.62" stroke="#132e65" stroke-width="1.5"></path><path d="M187.85 689.81L273.94 528.76" stroke="#132e65" stroke-width="1.5"></path><path d="M289.4 306.17L289.4 306.17" stroke="#132e65" stroke-width="1.5"></path><path d="M289.4 306.17L289.91 416.98" stroke="#132e65" stroke-width="1.5"></path><path d="M289.4 306.17L431.46 283.15" stroke="#132e65" stroke-width="1.5"></path><path d="M289.4 306.17L151.25 422.72" stroke="#132e65" stroke-width="1.5"></path><path d="M289.4 306.17L431.88 439.81" stroke="#132e65" stroke-width="1.5"></path><path d="M289.4 306.17L273.94 528.76" stroke="#132e65" stroke-width="1.5"></path><path d="M289.4 306.17L515.13 394.57" stroke="#132e65" stroke-width="1.5"></path><path d="M289.91 416.98L289.91 416.98" stroke="#132e65" stroke-width="1.5"></path><path d="M289.91 416.98L273.94 528.76" stroke="#132e65" stroke-width="1.5"></path><path d="M289.91 416.98L431.88 439.81" stroke="#132e65" stroke-width="1.5"></path><path d="M289.91 416.98L415.37 515.63" stroke="#132e65" stroke-width="1.5"></path><path d="M273.94 528.76L273.94 528.76" stroke="#132e65" stroke-width="1.5"></path><path d="M273.94 528.76L316.89 643.07" stroke="#132e65" stroke-width="1.5"></path><path d="M273.94 528.76L415.37 515.63" stroke="#132e65" stroke-width="1.5"></path><path d="M316.89 643.07L316.89 643.07" stroke="#132e65" stroke-width="1.5"></path><path d="M316.89 643.07L420.96 630.22" stroke="#132e65" stroke-width="1.5"></path><path d="M316.89 643.07L415.37 515.63" stroke="#132e65" stroke-width="1.5"></path><path d="M431.46 283.15L431.46 283.15" stroke="#132e65" stroke-width="1.5"></path><path d="M431.46 283.15L543.15 295.47" stroke="#132e65" stroke-width="1.5"></path><path d="M431.46 283.15L515.13 394.57" stroke="#132e65" stroke-width="1.5"></path><path d="M431.46 283.15L431.88 439.81" stroke="#132e65" stroke-width="1.5"></path><path d="M431.88 439.81L431.88 439.81" stroke="#132e65" stroke-width="1.5"></path><path d="M431.88 439.81L415.37 515.63" stroke="#132e65" stroke-width="1.5"></path><path d="M431.88 439.81L515.13 394.57" stroke="#132e65" stroke-width="1.5"></path><path d="M415.37 515.63L415.37 515.63" stroke="#132e65" stroke-width="1.5"></path><path d="M415.37 515.63L420.96 630.22" stroke="#132e65" stroke-width="1.5"></path><path d="M415.37 515.63L553.43 528.15" stroke="#132e65" stroke-width="1.5"></path><path d="M415.37 515.63L515.13 394.57" stroke="#132e65" stroke-width="1.5"></path><path d="M420.96 630.22L420.96 630.22" stroke="#132e65" stroke-width="1.5"></path><path d="M420.96 630.22L542.04 650.32" stroke="#132e65" stroke-width="1.5"></path><path d="M420.96 630.22L553.43 528.15" stroke="#132e65" stroke-width="1.5"></path><path d="M420.96 630.22L273.94 528.76" stroke="#132e65" stroke-width="1.5"></path><path d="M568.56 198.69L568.56 198.69" stroke="#132e65" stroke-width="1.5"></path><path d="M568.56 198.69L630.71 202.46" stroke="#132e65" stroke-width="1.5"></path><path d="M568.56 198.69L543.15 295.47" stroke="#132e65" stroke-width="1.5"></path><path d="M543.15 295.47L543.15 295.47" stroke="#132e65" stroke-width="1.5"></path><path d="M543.15 295.47L635.59 287.74" stroke="#132e65" stroke-width="1.5"></path><path d="M543.15 295.47L515.13 394.57" stroke="#132e65" stroke-width="1.5"></path><path d="M543.15 295.47L630.71 202.46" stroke="#132e65" stroke-width="1.5"></path><path d="M515.13 394.57L515.13 394.57" stroke="#132e65" stroke-width="1.5"></path><path d="M515.13 394.57L553.43 528.15" stroke="#132e65" stroke-width="1.5"></path><path d="M515.13 394.57L635.59 287.74" stroke="#132e65" stroke-width="1.5"></path><path d="M553.43 528.15L553.43 528.15" stroke="#132e65" stroke-width="1.5"></path><path d="M553.43 528.15L650.57 544.91" stroke="#132e65" stroke-width="1.5"></path><path d="M553.43 528.15L542.04 650.32" stroke="#132e65" stroke-width="1.5"></path><path d="M553.43 528.15L431.88 439.81" stroke="#132e65" stroke-width="1.5"></path><path d="M542.04 650.32L542.04 650.32" stroke="#132e65" stroke-width="1.5"></path><path d="M542.04 650.32L681.98 669.86" stroke="#132e65" stroke-width="1.5"></path><path d="M542.04 650.32L650.57 544.91" stroke="#132e65" stroke-width="1.5"></path><path d="M542.04 650.32L415.37 515.63" stroke="#132e65" stroke-width="1.5"></path><path d="M542.04 650.32L316.89 643.07" stroke="#132e65" stroke-width="1.5"></path><path d="M680.67 -37.12L680.67 -37.12" stroke="#132e65" stroke-width="1.5"></path><path d="M680.67 -37.12L774.84 -69.13" stroke="#132e65" stroke-width="1.5"></path><path d="M680.67 -37.12L675.52 70.85" stroke="#132e65" stroke-width="1.5"></path><path d="M680.67 -37.12L791.47 33.24" stroke="#132e65" stroke-width="1.5"></path><path d="M680.67 -37.12L889.81 -84.59" stroke="#132e65" stroke-width="1.5"></path><path d="M680.67 -37.12L785.18 168.75" stroke="#132e65" stroke-width="1.5"></path><path d="M675.52 70.85L675.52 70.85" stroke="#132e65" stroke-width="1.5"></path><path d="M675.52 70.85L791.47 33.24" stroke="#132e65" stroke-width="1.5"></path><path d="M675.52 70.85L630.71 202.46" stroke="#132e65" stroke-width="1.5"></path><path d="M630.71 202.46L630.71 202.46" stroke="#132e65" stroke-width="1.5"></path><path d="M630.71 202.46L635.59 287.74" stroke="#132e65" stroke-width="1.5"></path><path d="M635.59 287.74L635.59 287.74" stroke="#132e65" stroke-width="1.5"></path><path d="M635.59 287.74L568.56 198.69" stroke="#132e65" stroke-width="1.5"></path><path d="M635.59 287.74L761.7 312.9" stroke="#132e65" stroke-width="1.5"></path><path d="M650.57 544.91L650.57 544.91" stroke="#132e65" stroke-width="1.5"></path><path d="M650.57 544.91L681.98 669.86" stroke="#132e65" stroke-width="1.5"></path><path d="M650.57 544.91L805.83 532.04" stroke="#132e65" stroke-width="1.5"></path><path d="M650.57 544.91L764.94 408.98" stroke="#132e65" stroke-width="1.5"></path><path d="M681.98 669.86L681.98 669.86" stroke="#132e65" stroke-width="1.5"></path><path d="M681.98 669.86L798.77 643.46" stroke="#132e65" stroke-width="1.5"></path><path d="M681.98 669.86L805.83 532.04" stroke="#132e65" stroke-width="1.5"></path><path d="M774.84 -69.13L774.84 -69.13" stroke="#132e65" stroke-width="1.5"></path><path d="M774.84 -69.13L791.47 33.24" stroke="#132e65" stroke-width="1.5"></path><path d="M791.47 33.24L791.47 33.24" stroke="#132e65" stroke-width="1.5"></path><path d="M785.18 168.75L785.18 168.75" stroke="#132e65" stroke-width="1.5"></path><path d="M785.18 168.75L910.91 187.15" stroke="#132e65" stroke-width="1.5"></path><path d="M785.18 168.75L791.47 33.24" stroke="#132e65" stroke-width="1.5"></path><path d="M785.18 168.75L761.7 312.9" stroke="#132e65" stroke-width="1.5"></path><path d="M785.18 168.75L675.52 70.85" stroke="#132e65" stroke-width="1.5"></path><path d="M761.7 312.9L761.7 312.9" stroke="#132e65" stroke-width="1.5"></path><path d="M761.7 312.9L764.94 408.98" stroke="#132e65" stroke-width="1.5"></path><path d="M764.94 408.98L764.94 408.98" stroke="#132e65" stroke-width="1.5"></path><path d="M764.94 408.98L805.83 532.04" stroke="#132e65" stroke-width="1.5"></path><path d="M805.83 532.04L805.83 532.04" stroke="#132e65" stroke-width="1.5"></path><path d="M805.83 532.04L882.33 527.09" stroke="#132e65" stroke-width="1.5"></path><path d="M805.83 532.04L798.77 643.46" stroke="#132e65" stroke-width="1.5"></path><path d="M805.83 532.04L897.88 665.73" stroke="#132e65" stroke-width="1.5"></path><path d="M798.77 643.46L798.77 643.46" stroke="#132e65" stroke-width="1.5"></path><path d="M798.77 643.46L897.88 665.73" stroke="#132e65" stroke-width="1.5"></path><path d="M889.81 -84.59L889.81 -84.59" stroke="#132e65" stroke-width="1.5"></path><path d="M889.81 -84.59L774.84 -69.13" stroke="#132e65" stroke-width="1.5"></path><path d="M889.81 -84.59L1033.44 -54.32" stroke="#132e65" stroke-width="1.5"></path><path d="M889.81 -84.59L918.06 60.19" stroke="#132e65" stroke-width="1.5"></path><path d="M889.81 -84.59L791.47 33.24" stroke="#132e65" stroke-width="1.5"></path><path d="M918.06 60.19L918.06 60.19" stroke="#132e65" stroke-width="1.5"></path><path d="M918.06 60.19L910.91 187.15" stroke="#132e65" stroke-width="1.5"></path><path d="M918.06 60.19L791.47 33.24" stroke="#132e65" stroke-width="1.5"></path><path d="M910.91 187.15L910.91 187.15" stroke="#132e65" stroke-width="1.5"></path><path d="M910.91 187.15L892.84 309.65" stroke="#132e65" stroke-width="1.5"></path><path d="M910.91 187.15L1004.47 275.08" stroke="#132e65" stroke-width="1.5"></path><path d="M910.91 187.15L1049.74 164.77" stroke="#132e65" stroke-width="1.5"></path><path d="M892.84 309.65L892.84 309.65" stroke="#132e65" stroke-width="1.5"></path><path d="M892.84 309.65L1004.47 275.08" stroke="#132e65" stroke-width="1.5"></path><path d="M892.84 309.65L761.7 312.9" stroke="#132e65" stroke-width="1.5"></path><path d="M892.84 309.65L998.13 408.18" stroke="#132e65" stroke-width="1.5"></path><path d="M882.33 527.09L882.33 527.09" stroke="#132e65" stroke-width="1.5"></path><path d="M882.33 527.09L897.88 665.73" stroke="#132e65" stroke-width="1.5"></path><path d="M882.33 527.09L798.77 643.46" stroke="#132e65" stroke-width="1.5"></path><path d="M882.33 527.09L1032.7 546.1" stroke="#132e65" stroke-width="1.5"></path><path d="M897.88 665.73L897.88 665.73" stroke="#132e65" stroke-width="1.5"></path><path d="M1033.44 -54.32L1033.44 -54.32" stroke="#132e65" stroke-width="1.5"></path><path d="M1033.44 -54.32L918.06 60.19" stroke="#132e65" stroke-width="1.5"></path><path d="M1033.44 -54.32L1049.74 164.77" stroke="#132e65" stroke-width="1.5"></path><path d="M1033.44 -54.32L791.47 33.24" stroke="#132e65" stroke-width="1.5"></path><path d="M1049.74 164.77L1049.74 164.77" stroke="#132e65" stroke-width="1.5"></path><path d="M1049.74 164.77L1004.47 275.08" stroke="#132e65" stroke-width="1.5"></path><path d="M1049.74 164.77L918.06 60.19" stroke="#132e65" stroke-width="1.5"></path><path d="M1049.74 164.77L892.84 309.65" stroke="#132e65" stroke-width="1.5"></path><path d="M1049.74 164.77L998.13 408.18" stroke="#132e65" stroke-width="1.5"></path><path d="M1004.47 275.08L1004.47 275.08" stroke="#132e65" stroke-width="1.5"></path><path d="M1004.47 275.08L998.13 408.18" stroke="#132e65" stroke-width="1.5"></path><path d="M1004.47 275.08L918.06 60.19" stroke="#132e65" stroke-width="1.5"></path><path d="M1004.47 275.08L785.18 168.75" stroke="#132e65" stroke-width="1.5"></path><path d="M998.13 408.18L998.13 408.18" stroke="#132e65" stroke-width="1.5"></path><path d="M998.13 408.18L1032.7 546.1" stroke="#132e65" stroke-width="1.5"></path><path d="M998.13 408.18L882.33 527.09" stroke="#132e65" stroke-width="1.5"></path><path d="M998.13 408.18L805.83 532.04" stroke="#132e65" stroke-width="1.5"></path><path d="M998.13 408.18L764.94 408.98" stroke="#132e65" stroke-width="1.5"></path><path d="M1032.7 546.1L1032.7 546.1" stroke="#132e65" stroke-width="1.5"></path><path d="M1032.7 546.1L1046.21 675.34" stroke="#132e65" stroke-width="1.5"></path><path d="M1032.7 546.1L897.88 665.73" stroke="#132e65" stroke-width="1.5"></path><path d="M1032.7 546.1L805.83 532.04" stroke="#132e65" stroke-width="1.5"></path><path d="M1046.21 675.34L1046.21 675.34" stroke="#132e65" stroke-width="1.5"></path><circle r="5" cx="-88.5" cy="321.41" fill="#132e65"></circle><circle r="5" cx="-89.48" cy="429.5" fill="#132e65"></circle><circle r="5" cx="-33.53" cy="545.92" fill="#132e65"></circle><circle r="5" cx="-73.12" cy="682.51" fill="#132e65"></circle><circle r="5" cx="45.7" cy="425.43" fill="#132e65"></circle><circle r="5" cx="70.25" cy="553.83" fill="#132e65"></circle><circle r="5" cx="35.03" cy="646.62" fill="#132e65"></circle><circle r="5" cx="151.25" cy="422.72" fill="#132e65"></circle><circle r="5" cx="175.85" cy="562.57" fill="#132e65"></circle><circle r="5" cx="187.85" cy="689.81" fill="#132e65"></circle><circle r="5" cx="289.4" cy="306.17" fill="#132e65"></circle><circle r="5" cx="289.91" cy="416.98" fill="#132e65"></circle><circle r="5" cx="273.94" cy="528.76" fill="#132e65"></circle><circle r="5" cx="316.89" cy="643.07" fill="#132e65"></circle><circle r="5" cx="431.46" cy="283.15" fill="#132e65"></circle><circle r="5" cx="431.88" cy="439.81" fill="#132e65"></circle><circle r="5" cx="415.37" cy="515.63" fill="#132e65"></circle><circle r="5" cx="420.96" cy="630.22" fill="#132e65"></circle><circle r="5" cx="568.56" cy="198.69" fill="#132e65"></circle><circle r="5" cx="543.15" cy="295.47" fill="#132e65"></circle><circle r="5" cx="515.13" cy="394.57" fill="#132e65"></circle><circle r="5" cx="553.43" cy="528.15" fill="#132e65"></circle><circle r="5" cx="542.04" cy="650.32" fill="#132e65"></circle><circle r="5" cx="680.67" cy="-37.12" fill="#132e65"></circle><circle r="5" cx="675.52" cy="70.85" fill="#132e65"></circle><circle r="5" cx="630.71" cy="202.46" fill="#132e65"></circle><circle r="5" cx="635.59" cy="287.74" fill="#132e65"></circle><circle r="5" cx="650.57" cy="544.91" fill="#132e65"></circle><circle r="5" cx="681.98" cy="669.86" fill="#132e65"></circle><circle r="5" cx="774.84" cy="-69.13" fill="#132e65"></circle><circle r="5" cx="791.47" cy="33.24" fill="#132e65"></circle><circle r="5" cx="785.18" cy="168.75" fill="#132e65"></circle><circle r="5" cx="761.7" cy="312.9" fill="#132e65"></circle><circle r="5" cx="764.94" cy="408.98" fill="#132e65"></circle><circle r="5" cx="805.83" cy="532.04" fill="#132e65"></circle><circle r="5" cx="798.77" cy="643.46" fill="#132e65"></circle><circle r="5" cx="889.81" cy="-84.59" fill="#132e65"></circle><circle r="5" cx="918.06" cy="60.19" fill="#132e65"></circle><circle r="5" cx="910.91" cy="187.15" fill="#132e65"></circle><circle r="5" cx="892.84" cy="309.65" fill="#132e65"></circle><circle r="5" cx="882.33" cy="527.09" fill="#132e65"></circle><circle r="5" cx="897.88" cy="665.73" fill="#132e65"></circle><circle r="5" cx="1033.44" cy="-54.32" fill="#132e65"></circle><circle r="5" cx="1049.74" cy="164.77" fill="#132e65"></circle><circle r="5" cx="1004.47" cy="275.08" fill="#132e65"></circle><circle r="5" cx="998.13" cy="408.18" fill="#132e65"></circle><circle r="5" cx="1032.7" cy="546.1" fill="#132e65"></circle><circle r="5" cx="1046.21" cy="675.34" fill="#132e65"></circle><path d="M-48.95 435.97L-48.95 435.97" stroke="hsl(228.39999999999998, 56.5%, 49.2%)" stroke-width="1.5"></path><path d="M-48.95 435.97L-45.52 538.53" stroke="hsl(228.39999999999998, 56.5%, 49.2%)" stroke-width="1.5"></path><path d="M-48.95 435.97L42.54 536.54" stroke="hsl(228.39999999999998, 56.5%, 49.2%)" stroke-width="1.5"></path><path d="M-48.95 435.97L-85.09 658.25" stroke="hsl(228.39999999999998, 56.5%, 49.2%)" stroke-width="1.5"></path><path d="M-48.95 435.97L182.48 437.9" stroke="hsl(228.39999999999998, 56.5%, 49.2%)" stroke-width="1.5"></path><path d="M-48.95 435.97L182.8 547.3" stroke="hsl(228.39999999999998, 56.5%, 49.2%)" stroke-width="1.5"></path><path d="M-48.95 435.97L80.86 658.84" stroke="hsl(228.39999999999998, 56.5%, 49.2%)" stroke-width="1.5"></path><path d="M411.6 633.67L411.6 633.67" stroke="hsl(228.39999999999998, 56.5%, 49.2%)" stroke-width="1.5"></path><path d="M411.6 633.67L393.96 533.29" stroke="hsl(228.39999999999998, 56.5%, 49.2%)" stroke-width="1.5"></path><path d="M411.6 633.67L304.94 674.76" stroke="hsl(228.39999999999998, 56.5%, 49.2%)" stroke-width="1.5"></path><path d="M532.61 536.31L532.61 536.31" stroke="hsl(228.39999999999998, 56.5%, 49.2%)" stroke-width="1.5"></path><path d="M532.61 536.31L535.41 640.93" stroke="hsl(228.39999999999998, 56.5%, 49.2%)" stroke-width="1.5"></path><path d="M532.61 536.31L534.78 416.6" stroke="hsl(228.39999999999998, 56.5%, 49.2%)" stroke-width="1.5"></path><path d="M532.61 536.31L393.96 533.29" stroke="hsl(228.39999999999998, 56.5%, 49.2%)" stroke-width="1.5"></path><path d="M532.61 536.31L668.48 565.67" stroke="hsl(228.39999999999998, 56.5%, 49.2%)" stroke-width="1.5"></path><path d="M532.61 536.31L411.6 633.67" stroke="hsl(228.39999999999998, 56.5%, 49.2%)" stroke-width="1.5"></path><path d="M532.61 536.31L656.33 429.21" stroke="hsl(228.39999999999998, 56.5%, 49.2%)" stroke-width="1.5"></path><path d="M656.33 429.21L656.33 429.21" stroke="hsl(228.39999999999998, 56.5%, 49.2%)" stroke-width="1.5"></path><path d="M656.33 429.21L760.08 414.5" stroke="hsl(228.39999999999998, 56.5%, 49.2%)" stroke-width="1.5"></path><path d="M656.33 429.21L534.78 416.6" stroke="hsl(228.39999999999998, 56.5%, 49.2%)" stroke-width="1.5"></path><path d="M656.33 429.21L668.48 565.67" stroke="hsl(228.39999999999998, 56.5%, 49.2%)" stroke-width="1.5"></path><path d="M656.33 429.21L681.36 283.52" stroke="hsl(228.39999999999998, 56.5%, 49.2%)" stroke-width="1.5"></path><path d="M656.33 429.21L768.86 319.5" stroke="hsl(228.39999999999998, 56.5%, 49.2%)" stroke-width="1.5"></path><path d="M885.91 392.98L885.91 392.98" stroke="hsl(228.39999999999998, 56.5%, 49.2%)" stroke-width="1.5"></path><path d="M885.91 392.98L885.91 291.43" stroke="hsl(228.39999999999998, 56.5%, 49.2%)" stroke-width="1.5"></path><path d="M885.91 392.98L1003.9 404.36" stroke="hsl(228.39999999999998, 56.5%, 49.2%)" stroke-width="1.5"></path><path d="M885.91 392.98L760.08 414.5" stroke="hsl(228.39999999999998, 56.5%, 49.2%)" stroke-width="1.5"></path><path d="M885.91 392.98L768.86 319.5" stroke="hsl(228.39999999999998, 56.5%, 49.2%)" stroke-width="1.5"></path><path d="M990.11 645.42L990.11 645.42" stroke="hsl(228.39999999999998, 56.5%, 49.2%)" stroke-width="1.5"></path><path d="M990.11 645.42L1035.89 547.24" stroke="hsl(228.39999999999998, 56.5%, 49.2%)" stroke-width="1.5"></path><path d="M990.11 645.42L876.89 677.99" stroke="hsl(228.39999999999998, 56.5%, 49.2%)" stroke-width="1.5"></path><path d="M990.11 645.42L886.84 533.11" stroke="hsl(228.39999999999998, 56.5%, 49.2%)" stroke-width="1.5"></path><path d="M-45.52 538.53L-45.52 538.53" stroke="hsl(228.39999999999998, 56.5%, 49.2%)" stroke-width="1.5"></path><path d="M-45.52 538.53L42.54 536.54" stroke="hsl(228.39999999999998, 56.5%, 49.2%)" stroke-width="1.5"></path><path d="M-45.52 538.53L-85.09 658.25" stroke="hsl(228.39999999999998, 56.5%, 49.2%)" stroke-width="1.5"></path><path d="M-45.52 538.53L80.86 658.84" stroke="hsl(228.39999999999998, 56.5%, 49.2%)" stroke-width="1.5"></path><path d="M-45.52 538.53L182.8 547.3" stroke="hsl(228.39999999999998, 56.5%, 49.2%)" stroke-width="1.5"></path><path d="M-85.09 658.25L-85.09 658.25" stroke="hsl(228.39999999999998, 56.5%, 49.2%)" stroke-width="1.5"></path><path d="M-85.09 658.25L80.86 658.84" stroke="hsl(228.39999999999998, 56.5%, 49.2%)" stroke-width="1.5"></path><path d="M-85.09 658.25L42.54 536.54" stroke="hsl(228.39999999999998, 56.5%, 49.2%)" stroke-width="1.5"></path><path d="M-85.09 658.25L175.74 660.23" stroke="hsl(228.39999999999998, 56.5%, 49.2%)" stroke-width="1.5"></path><path d="M42.54 536.54L42.54 536.54" stroke="hsl(228.39999999999998, 56.5%, 49.2%)" stroke-width="1.5"></path><path d="M42.54 536.54L80.86 658.84" stroke="hsl(228.39999999999998, 56.5%, 49.2%)" stroke-width="1.5"></path><path d="M42.54 536.54L182.8 547.3" stroke="hsl(228.39999999999998, 56.5%, 49.2%)" stroke-width="1.5"></path><path d="M80.86 658.84L80.86 658.84" stroke="hsl(228.39999999999998, 56.5%, 49.2%)" stroke-width="1.5"></path><path d="M80.86 658.84L175.74 660.23" stroke="hsl(228.39999999999998, 56.5%, 49.2%)" stroke-width="1.5"></path><path d="M80.86 658.84L182.8 547.3" stroke="hsl(228.39999999999998, 56.5%, 49.2%)" stroke-width="1.5"></path><path d="M182.48 437.9L182.48 437.9" stroke="hsl(228.39999999999998, 56.5%, 49.2%)" stroke-width="1.5"></path><path d="M182.48 437.9L182.8 547.3" stroke="hsl(228.39999999999998, 56.5%, 49.2%)" stroke-width="1.5"></path><path d="M182.48 437.9L288.66 517.14" stroke="hsl(228.39999999999998, 56.5%, 49.2%)" stroke-width="1.5"></path><path d="M182.48 437.9L318.71 448.03" stroke="hsl(228.39999999999998, 56.5%, 49.2%)" stroke-width="1.5"></path><path d="M182.8 547.3L182.8 547.3" stroke="hsl(228.39999999999998, 56.5%, 49.2%)" stroke-width="1.5"></path><path d="M182.8 547.3L288.66 517.14" stroke="hsl(228.39999999999998, 56.5%, 49.2%)" stroke-width="1.5"></path><path d="M182.8 547.3L175.74 660.23" stroke="hsl(228.39999999999998, 56.5%, 49.2%)" stroke-width="1.5"></path><path d="M182.8 547.3L318.71 448.03" stroke="hsl(228.39999999999998, 56.5%, 49.2%)" stroke-width="1.5"></path><path d="M175.74 660.23L175.74 660.23" stroke="hsl(228.39999999999998, 56.5%, 49.2%)" stroke-width="1.5"></path><path d="M175.74 660.23L304.94 674.76" stroke="hsl(228.39999999999998, 56.5%, 49.2%)" stroke-width="1.5"></path><path d="M318.71 448.03L318.71 448.03" stroke="hsl(228.39999999999998, 56.5%, 49.2%)" stroke-width="1.5"></path><path d="M318.71 448.03L288.66 517.14" stroke="hsl(228.39999999999998, 56.5%, 49.2%)" stroke-width="1.5"></path><path d="M318.71 448.03L393.96 533.29" stroke="hsl(228.39999999999998, 56.5%, 49.2%)" stroke-width="1.5"></path><path d="M318.71 448.03L411.6 633.67" stroke="hsl(228.39999999999998, 56.5%, 49.2%)" stroke-width="1.5"></path><path d="M288.66 517.14L288.66 517.14" stroke="hsl(228.39999999999998, 56.5%, 49.2%)" stroke-width="1.5"></path><path d="M288.66 517.14L393.96 533.29" stroke="hsl(228.39999999999998, 56.5%, 49.2%)" stroke-width="1.5"></path><path d="M304.94 674.76L304.94 674.76" stroke="hsl(228.39999999999998, 56.5%, 49.2%)" stroke-width="1.5"></path><path d="M304.94 674.76L288.66 517.14" stroke="hsl(228.39999999999998, 56.5%, 49.2%)" stroke-width="1.5"></path><path d="M304.94 674.76L393.96 533.29" stroke="hsl(228.39999999999998, 56.5%, 49.2%)" stroke-width="1.5"></path><path d="M393.96 533.29L393.96 533.29" stroke="hsl(228.39999999999998, 56.5%, 49.2%)" stroke-width="1.5"></path><path d="M534.78 416.6L534.78 416.6" stroke="hsl(228.39999999999998, 56.5%, 49.2%)" stroke-width="1.5"></path><path d="M535.41 640.93L535.41 640.93" stroke="hsl(228.39999999999998, 56.5%, 49.2%)" stroke-width="1.5"></path><path d="M535.41 640.93L411.6 633.67" stroke="hsl(228.39999999999998, 56.5%, 49.2%)" stroke-width="1.5"></path><path d="M535.41 640.93L674.45 672.41" stroke="hsl(228.39999999999998, 56.5%, 49.2%)" stroke-width="1.5"></path><path d="M535.41 640.93L668.48 565.67" stroke="hsl(228.39999999999998, 56.5%, 49.2%)" stroke-width="1.5"></path><path d="M535.41 640.93L393.96 533.29" stroke="hsl(228.39999999999998, 56.5%, 49.2%)" stroke-width="1.5"></path><path d="M535.41 640.93L534.78 416.6" stroke="hsl(228.39999999999998, 56.5%, 49.2%)" stroke-width="1.5"></path><path d="M681.36 283.52L681.36 283.52" stroke="hsl(228.39999999999998, 56.5%, 49.2%)" stroke-width="1.5"></path><path d="M681.36 283.52L768.86 319.5" stroke="hsl(228.39999999999998, 56.5%, 49.2%)" stroke-width="1.5"></path><path d="M681.36 283.52L756.19 151.5" stroke="hsl(228.39999999999998, 56.5%, 49.2%)" stroke-width="1.5"></path><path d="M681.36 283.52L760.08 414.5" stroke="hsl(228.39999999999998, 56.5%, 49.2%)" stroke-width="1.5"></path><path d="M681.36 283.52L534.78 416.6" stroke="hsl(228.39999999999998, 56.5%, 49.2%)" stroke-width="1.5"></path><path d="M681.36 283.52L885.91 291.43" stroke="hsl(228.39999999999998, 56.5%, 49.2%)" stroke-width="1.5"></path><path d="M668.48 565.67L668.48 565.67" stroke="hsl(228.39999999999998, 56.5%, 49.2%)" stroke-width="1.5"></path><path d="M668.48 565.67L674.45 672.41" stroke="hsl(228.39999999999998, 56.5%, 49.2%)" stroke-width="1.5"></path><path d="M674.45 672.41L674.45 672.41" stroke="hsl(228.39999999999998, 56.5%, 49.2%)" stroke-width="1.5"></path><path d="M674.45 672.41L809.08 680.83" stroke="hsl(228.39999999999998, 56.5%, 49.2%)" stroke-width="1.5"></path><path d="M790.23 -83.85L790.23 -83.85" stroke="hsl(228.39999999999998, 56.5%, 49.2%)" stroke-width="1.5"></path><path d="M790.23 -83.85L915.64 -79.07" stroke="hsl(228.39999999999998, 56.5%, 49.2%)" stroke-width="1.5"></path><path d="M790.23 -83.85L765.21 53.42" stroke="hsl(228.39999999999998, 56.5%, 49.2%)" stroke-width="1.5"></path><path d="M790.23 -83.85L925.73 34.91" stroke="hsl(228.39999999999998, 56.5%, 49.2%)" stroke-width="1.5"></path><path d="M765.21 53.42L765.21 53.42" stroke="hsl(228.39999999999998, 56.5%, 49.2%)" stroke-width="1.5"></path><path d="M765.21 53.42L756.19 151.5" stroke="hsl(228.39999999999998, 56.5%, 49.2%)" stroke-width="1.5"></path><path d="M765.21 53.42L925.73 34.91" stroke="hsl(228.39999999999998, 56.5%, 49.2%)" stroke-width="1.5"></path><path d="M765.21 53.42L877.16 209.74" stroke="hsl(228.39999999999998, 56.5%, 49.2%)" stroke-width="1.5"></path><path d="M765.21 53.42L915.64 -79.07" stroke="hsl(228.39999999999998, 56.5%, 49.2%)" stroke-width="1.5"></path><path d="M756.19 151.5L756.19 151.5" stroke="hsl(228.39999999999998, 56.5%, 49.2%)" stroke-width="1.5"></path><path d="M756.19 151.5L877.16 209.74" stroke="hsl(228.39999999999998, 56.5%, 49.2%)" stroke-width="1.5"></path><path d="M768.86 319.5L768.86 319.5" stroke="hsl(228.39999999999998, 56.5%, 49.2%)" stroke-width="1.5"></path><path d="M768.86 319.5L760.08 414.5" stroke="hsl(228.39999999999998, 56.5%, 49.2%)" stroke-width="1.5"></path><path d="M768.86 319.5L885.91 291.43" stroke="hsl(228.39999999999998, 56.5%, 49.2%)" stroke-width="1.5"></path><path d="M760.08 414.5L760.08 414.5" stroke="hsl(228.39999999999998, 56.5%, 49.2%)" stroke-width="1.5"></path><path d="M809.08 680.83L809.08 680.83" stroke="hsl(228.39999999999998, 56.5%, 49.2%)" stroke-width="1.5"></path><path d="M809.08 680.83L876.89 677.99" stroke="hsl(228.39999999999998, 56.5%, 49.2%)" stroke-width="1.5"></path><path d="M809.08 680.83L886.84 533.11" stroke="hsl(228.39999999999998, 56.5%, 49.2%)" stroke-width="1.5"></path><path d="M809.08 680.83L668.48 565.67" stroke="hsl(228.39999999999998, 56.5%, 49.2%)" stroke-width="1.5"></path><path d="M809.08 680.83L990.11 645.42" stroke="hsl(228.39999999999998, 56.5%, 49.2%)" stroke-width="1.5"></path><path d="M915.64 -79.07L915.64 -79.07" stroke="hsl(228.39999999999998, 56.5%, 49.2%)" stroke-width="1.5"></path><path d="M915.64 -79.07L1021.1 -79.56" stroke="hsl(228.39999999999998, 56.5%, 49.2%)" stroke-width="1.5"></path><path d="M915.64 -79.07L925.73 34.91" stroke="hsl(228.39999999999998, 56.5%, 49.2%)" stroke-width="1.5"></path><path d="M915.64 -79.07L991.53 77.2" stroke="hsl(228.39999999999998, 56.5%, 49.2%)" stroke-width="1.5"></path><path d="M925.73 34.91L925.73 34.91" stroke="hsl(228.39999999999998, 56.5%, 49.2%)" stroke-width="1.5"></path><path d="M925.73 34.91L991.53 77.2" stroke="hsl(228.39999999999998, 56.5%, 49.2%)" stroke-width="1.5"></path><path d="M925.73 34.91L1006.29 155.56" stroke="hsl(228.39999999999998, 56.5%, 49.2%)" stroke-width="1.5"></path><path d="M925.73 34.91L1021.1 -79.56" stroke="hsl(228.39999999999998, 56.5%, 49.2%)" stroke-width="1.5"></path><path d="M877.16 209.74L877.16 209.74" stroke="hsl(228.39999999999998, 56.5%, 49.2%)" stroke-width="1.5"></path><path d="M877.16 209.74L885.91 291.43" stroke="hsl(228.39999999999998, 56.5%, 49.2%)" stroke-width="1.5"></path><path d="M877.16 209.74L1006.29 155.56" stroke="hsl(228.39999999999998, 56.5%, 49.2%)" stroke-width="1.5"></path><path d="M877.16 209.74L768.86 319.5" stroke="hsl(228.39999999999998, 56.5%, 49.2%)" stroke-width="1.5"></path><path d="M877.16 209.74L991.53 77.2" stroke="hsl(228.39999999999998, 56.5%, 49.2%)" stroke-width="1.5"></path><path d="M885.91 291.43L885.91 291.43" stroke="hsl(228.39999999999998, 56.5%, 49.2%)" stroke-width="1.5"></path><path d="M886.84 533.11L886.84 533.11" stroke="hsl(228.39999999999998, 56.5%, 49.2%)" stroke-width="1.5"></path><path d="M886.84 533.11L885.91 392.98" stroke="hsl(228.39999999999998, 56.5%, 49.2%)" stroke-width="1.5"></path><path d="M886.84 533.11L876.89 677.99" stroke="hsl(228.39999999999998, 56.5%, 49.2%)" stroke-width="1.5"></path><path d="M876.89 677.99L876.89 677.99" stroke="hsl(228.39999999999998, 56.5%, 49.2%)" stroke-width="1.5"></path><path d="M876.89 677.99L674.45 672.41" stroke="hsl(228.39999999999998, 56.5%, 49.2%)" stroke-width="1.5"></path><path d="M876.89 677.99L1035.89 547.24" stroke="hsl(228.39999999999998, 56.5%, 49.2%)" stroke-width="1.5"></path><path d="M1021.1 -79.56L1021.1 -79.56" stroke="hsl(228.39999999999998, 56.5%, 49.2%)" stroke-width="1.5"></path><path d="M1021.1 -79.56L991.53 77.2" stroke="hsl(228.39999999999998, 56.5%, 49.2%)" stroke-width="1.5"></path><path d="M1021.1 -79.56L790.23 -83.85" stroke="hsl(228.39999999999998, 56.5%, 49.2%)" stroke-width="1.5"></path><path d="M1021.1 -79.56L1006.29 155.56" stroke="hsl(228.39999999999998, 56.5%, 49.2%)" stroke-width="1.5"></path><path d="M1021.1 -79.56L765.21 53.42" stroke="hsl(228.39999999999998, 56.5%, 49.2%)" stroke-width="1.5"></path><path d="M991.53 77.2L991.53 77.2" stroke="hsl(228.39999999999998, 56.5%, 49.2%)" stroke-width="1.5"></path><path d="M991.53 77.2L1006.29 155.56" stroke="hsl(228.39999999999998, 56.5%, 49.2%)" stroke-width="1.5"></path><path d="M1006.29 155.56L1006.29 155.56" stroke="hsl(228.39999999999998, 56.5%, 49.2%)" stroke-width="1.5"></path><path d="M1006.29 155.56L1045.88 310.34" stroke="hsl(228.39999999999998, 56.5%, 49.2%)" stroke-width="1.5"></path><path d="M1006.29 155.56L885.91 291.43" stroke="hsl(228.39999999999998, 56.5%, 49.2%)" stroke-width="1.5"></path><path d="M1045.88 310.34L1045.88 310.34" stroke="hsl(228.39999999999998, 56.5%, 49.2%)" stroke-width="1.5"></path><path d="M1045.88 310.34L1003.9 404.36" stroke="hsl(228.39999999999998, 56.5%, 49.2%)" stroke-width="1.5"></path><path d="M1045.88 310.34L885.91 291.43" stroke="hsl(228.39999999999998, 56.5%, 49.2%)" stroke-width="1.5"></path><path d="M1045.88 310.34L885.91 392.98" stroke="hsl(228.39999999999998, 56.5%, 49.2%)" stroke-width="1.5"></path><path d="M1045.88 310.34L877.16 209.74" stroke="hsl(228.39999999999998, 56.5%, 49.2%)" stroke-width="1.5"></path><path d="M1003.9 404.36L1003.9 404.36" stroke="hsl(228.39999999999998, 56.5%, 49.2%)" stroke-width="1.5"></path><path d="M1003.9 404.36L1035.89 547.24" stroke="hsl(228.39999999999998, 56.5%, 49.2%)" stroke-width="1.5"></path><path d="M1003.9 404.36L885.91 291.43" stroke="hsl(228.39999999999998, 56.5%, 49.2%)" stroke-width="1.5"></path><path d="M1003.9 404.36L886.84 533.11" stroke="hsl(228.39999999999998, 56.5%, 49.2%)" stroke-width="1.5"></path><path d="M1035.89 547.24L1035.89 547.24" stroke="hsl(228.39999999999998, 56.5%, 49.2%)" stroke-width="1.5"></path><circle r="25" cx="-48.95" cy="435.97" fill="url(&quot;#SvgjsRadialGradient1316&quot;)"></circle><circle r="25" cx="411.6" cy="633.67" fill="url(&quot;#SvgjsRadialGradient1316&quot;)"></circle><circle r="25" cx="532.61" cy="536.31" fill="url(&quot;#SvgjsRadialGradient1316&quot;)"></circle><circle r="25" cx="656.33" cy="429.21" fill="url(&quot;#SvgjsRadialGradient1316&quot;)"></circle><circle r="25" cx="885.91" cy="392.98" fill="url(&quot;#SvgjsRadialGradient1316&quot;)"></circle><circle r="25" cx="990.11" cy="645.42" fill="url(&quot;#SvgjsRadialGradient1316&quot;)"></circle><circle r="5" cx="-45.52" cy="538.53" fill="#959fcb"></circle><circle r="5" cx="-85.09" cy="658.25" fill="#959fcb"></circle><circle r="5" cx="42.54" cy="536.54" fill="#959fcb"></circle><circle r="5" cx="80.86" cy="658.84" fill="#959fcb"></circle><circle r="5" cx="182.48" cy="437.9" fill="#959fcb"></circle><circle r="5" cx="182.8" cy="547.3" fill="#959fcb"></circle><circle r="5" cx="175.74" cy="660.23" fill="#959fcb"></circle><circle r="5" cx="318.71" cy="448.03" fill="#959fcb"></circle><circle r="5" cx="288.66" cy="517.14" fill="#959fcb"></circle><circle r="5" cx="304.94" cy="674.76" fill="#959fcb"></circle><circle r="5" cx="393.96" cy="533.29" fill="#959fcb"></circle><circle r="5" cx="534.78" cy="416.6" fill="#959fcb"></circle><circle r="5" cx="535.41" cy="640.93" fill="#959fcb"></circle><circle r="5" cx="681.36" cy="283.52" fill="#959fcb"></circle><circle r="5" cx="668.48" cy="565.67" fill="#959fcb"></circle><circle r="5" cx="674.45" cy="672.41" fill="#959fcb"></circle><circle r="5" cx="790.23" cy="-83.85" fill="#959fcb"></circle><circle r="5" cx="765.21" cy="53.42" fill="#959fcb"></circle><circle r="5" cx="756.19" cy="151.5" fill="#959fcb"></circle><circle r="5" cx="768.86" cy="319.5" fill="#959fcb"></circle><circle r="5" cx="760.08" cy="414.5" fill="#959fcb"></circle><circle r="5" cx="809.08" cy="680.83" fill="#959fcb"></circle><circle r="5" cx="915.64" cy="-79.07" fill="#959fcb"></circle><circle r="5" cx="925.73" cy="34.91" fill="#959fcb"></circle><circle r="5" cx="877.16" cy="209.74" fill="#959fcb"></circle><circle r="5" cx="885.91" cy="291.43" fill="#959fcb"></circle><circle r="5" cx="886.84" cy="533.11" fill="#959fcb"></circle><circle r="5" cx="876.89" cy="677.99" fill="#959fcb"></circle><circle r="5" cx="1021.1" cy="-79.56" fill="#959fcb"></circle><circle r="5" cx="991.53" cy="77.2" fill="#959fcb"></circle><circle r="5" cx="1006.29" cy="155.56" fill="#959fcb"></circle><circle r="5" cx="1045.88" cy="310.34" fill="#959fcb"></circle><circle r="5" cx="1003.9" cy="404.36" fill="#959fcb"></circle><circle r="5" cx="1035.89" cy="547.24" fill="#959fcb"></circle></g><defs><mask id="SvgjsMask1315"><rect width="960" height="540" fill="#ffffff"></rect></mask><radialGradient id="SvgjsRadialGradient1316"><stop stop-color="#ffffff" offset="0.1"></stop><stop stop-color="rgba(42, 63, 151, 1)" offset="0.2"></stop><stop stop-color="rgba(42, 63, 151, 0)" offset="1"></stop></radialGradient></defs></svg>